<svg xmlns="http://www.w3.org/2000/svg" viewBox="0 0 512 512" width="512" height="512"><metadata><rdf:RDF xmlns:rdf="http://www.w3.org/1999/02/22-rdf-syntax-ns#" xmlns:dc="http://purl.org/dc/elements/1.1/"><rdf:Description><dc:creator>RealFaviconGenerator</dc:creator><dc:source>https://realfavicongenerator.net</dc:source></rdf:Description></rdf:RDF></metadata><rect width="512" height="512" rx="115" ry="115" fill="#ffffff"></rect><g transform="translate(64, 40)">
    <path fill="#17171c" opacity="1.000000" stroke="none" d="M144.887695,346.997131 C145.086777,365.867157 140.292648,382.291443 126.520760,395.392273 C115.725998,405.660980 102.868057,410.673279 88.144814,411.064148 C79.985634,411.280762 71.816086,411.116180 63.651222,411.107391 C54.489563,411.097534 52.837864,409.478485 52.836102,400.372528 C52.822285,328.888000 52.818459,257.403442 52.814976,185.918900 C52.812599,137.096085 52.812050,88.273285 52.819767,39.450478 C52.821163,30.604527 54.493446,28.872238 63.282078,28.869619 C108.438904,28.856169 153.601807,28.418776 198.750809,29.017735 C241.197495,29.580845 278.353821,44.118450 308.232544,74.878609 C329.511383,96.785133 342.255280,123.159225 346.345154,153.512772 C351.534332,192.025497 343.455170,227.483307 320.120544,258.718414 C298.234772,288.014160 268.485382,305.236786 232.742386,312.274902 C219.955475,314.792786 207.018738,315.597717 194.000168,315.313873 C187.167007,315.164886 185.040237,313.161285 184.980469,306.321838 C184.909119,298.157593 184.903961,289.991730 184.977112,281.827545 C185.041107,274.685272 187.699600,272.106476 194.639648,272.198608 C247.725891,272.903442 289.585388,234.779633 293.970764,181.889603 C298.361145,128.938629 261.692139,83.066551 212.282791,74.741173 C174.681793,68.405472 142.114609,79.079239 117.805771,109.393250 C102.724884,128.199646 97.604668,150.315277 100.949547,174.262619 C101.570190,178.706039 102.375183,183.123383 103.049492,187.559692 C103.749557,192.165512 102.748810,196.521484 100.829247,200.671875 C95.516472,212.158905 90.166435,223.628845 84.786072,235.084381 C80.534286,244.137024 83.362106,248.627960 93.497589,248.810120 C104.435867,249.006683 106.149483,250.773056 106.139580,261.765198 C106.129219,273.262695 106.072609,284.760712 106.165672,296.257477 C106.226456,303.767151 110.144974,307.610931 117.574806,307.673431 C123.406433,307.722473 129.238831,307.671478 135.070862,307.682434 C142.467865,307.696350 144.752167,309.615997 144.806274,317.064056 C144.877579,326.881683 144.162277,336.703003 144.887695,346.997131 z"></path>
    <path fill="#17171c" opacity="1.000000" stroke="none" d="M202.000031,150.679199 C209.495956,150.683807 216.492447,150.635208 223.487610,150.710510 C229.307083,150.773163 232.570007,153.575897 232.617416,158.353836 C232.665359,163.187607 229.390656,166.285278 223.748566,166.299026 C197.430801,166.363159 171.112747,166.367203 144.794968,166.313629 C139.318436,166.302490 135.696259,162.933701 135.833176,158.388351 C135.975204,153.672714 139.372620,150.729111 145.032959,150.712830 C163.855179,150.658691 182.677658,150.684494 202.000031,150.679199 z"></path>
    <path fill="#17171c" opacity="1.000000" stroke="none" d="M158.002655,197.215576 C153.178818,197.208221 148.851028,197.303040 144.530655,197.165405 C139.416580,197.002487 135.971176,193.854828 135.787720,189.432281 C135.607178,185.080338 138.331238,181.869400 143.591949,181.469193 C150.042938,180.978424 156.546356,181.123016 163.027542,181.095154 C175.502014,181.041489 187.976852,181.035034 200.451355,181.070358 C202.769333,181.076920 205.111954,181.209335 207.398590,181.568069 C211.839203,182.264725 214.098984,185.093613 214.109085,189.499725 C214.118591,193.636002 210.873627,196.967361 206.402023,197.107986 C199.090454,197.337906 191.767502,197.216003 184.449326,197.222931 C175.800232,197.231125 167.151093,197.218491 158.002655,197.215576 z"></path>
    <path fill="#17171c" opacity="1.000000" stroke="none" d="M195.988586,119.678619 C199.317352,119.682312 202.149323,119.648079 204.979828,119.697960 C210.944565,119.803070 214.128387,122.371223 214.281174,127.139061 C214.440079,132.097687 211.014328,135.269714 205.130234,135.318359 C194.971497,135.402359 184.811600,135.350540 174.652191,135.349503 C165.158981,135.348541 155.665527,135.377243 146.172623,135.321396 C139.288071,135.280899 135.702103,132.460098 135.805176,127.329971 C135.903351,122.444061 139.510529,119.714363 146.026382,119.703651 C162.514603,119.676552 179.002884,119.684746 195.988586,119.678619 z"></path>
    <path fill="#17171c" opacity="1.000000" stroke="none" d="M152.041748,228.166107 C148.888763,228.141891 146.211227,228.296310 143.570541,228.052063 C139.134720,227.641800 135.975616,224.404800 135.745132,220.365997 C135.510162,216.248825 138.256729,212.479980 142.919830,212.335571 C155.877670,211.934280 168.856552,211.915909 181.819763,212.151566 C186.110962,212.229568 189.464172,216.815918 189.152588,220.812698 C188.829132,224.962189 185.447296,228.028351 180.480484,228.110474 C171.167160,228.264511 161.849564,228.161575 152.041748,228.166107 z"></path>
    <path fill="#ff7759" opacity="1.000000" stroke="none" d="M251.810822,187.557037 C251.734924,194.052994 249.148285,196.954254 243.402451,197.185013 C239.597137,197.337830 235.773209,197.372574 231.971573,197.181824 C227.369110,196.950882 223.967194,193.546829 223.814285,189.380325 C223.663818,185.280548 226.401871,182.058014 231.067337,181.342606 C235.500031,180.662888 239.996185,180.790237 244.452805,181.258698 C248.097717,181.641800 250.517975,183.693527 251.810822,187.557037 z"></path>
    <path fill="#ff7759" opacity="1.000000" stroke="none" d="M226.154297,122.114700 C230.012466,118.749344 233.750366,118.886627 237.206039,121.798019 C240.074829,124.214958 240.400742,127.536018 238.912216,130.859695 C237.368851,134.305832 234.391937,135.613068 230.773926,135.231766 C224.709625,134.592651 222.422913,128.488480 226.154297,122.114700 z"></path>
    <path fill="#ff7759" opacity="1.000000" stroke="none" d="M213.917633,220.006622 C213.229935,224.940308 210.623978,227.753189 206.018433,227.881302 C202.540466,227.978058 199.987549,225.874863 199.027832,222.501984 C197.980347,218.820694 198.869461,215.546616 202.242691,213.327606 C206.963547,210.222076 211.861130,212.884430 213.917633,220.006622 z"></path>
    <path fill="#ff7759" opacity="1.000000" stroke="none" d="M241.967712,157.322906 C243.323105,152.812836 245.930954,150.358734 250.426208,150.817688 C253.903198,151.172668 256.196503,153.331421 257.018188,156.680618 C257.911682,160.322540 256.401398,163.213943 253.321396,165.155823 C248.169983,168.403702 242.792053,164.861023 241.967712,157.322906 z"></path>
  </g></svg>